<svg width="50" height="50" viewBox="0 0 50 50" fill="none" xmlns="http://www.w3.org/2000/svg">
<path d="M42.7083 4.16663H7.29167C6.46287 4.16663 5.66801 4.49587 5.08196 5.08192C4.49591 5.66797 4.16667 6.46282 4.16667 7.29163V42.7083C4.16667 43.5371 4.49591 44.3319 5.08196 44.918C5.66801 45.5041 6.46287 45.8333 7.29167 45.8333H42.7083C43.5371 45.8333 44.332 45.5041 44.918 44.918C45.5041 44.3319 45.8333 43.5371 45.8333 42.7083V7.29163C45.8333 6.46282 45.5041 5.66797 44.918 5.08192C44.332 4.49587 43.5371 4.16663 42.7083 4.16663ZM16.6667 39.5833H10.4167V20.8333H16.6667V39.5833ZM13.5417 17.1875C12.8254 17.167 12.131 16.9359 11.5453 16.523C10.9596 16.1102 10.5086 15.5339 10.2485 14.8662C9.98849 14.1984 9.93099 13.4689 10.0832 12.7686C10.2354 12.0684 10.5906 11.4286 11.1044 10.9291C11.6182 10.4296 12.2678 10.0925 12.972 9.96009C13.6762 9.82765 14.4039 9.90568 15.064 10.1844C15.7242 10.4632 16.2875 10.9303 16.6837 11.5274C17.0799 12.1244 17.2914 12.825 17.2917 13.5416C17.2752 14.5215 16.8715 15.4551 16.1689 16.1382C15.4662 16.8214 14.5216 17.1986 13.5417 17.1875ZM39.5833 39.5833H33.3333V29.7083C33.3333 26.75 32.0833 25.6875 30.4583 25.6875C29.9819 25.7192 29.5164 25.8447 29.0886 26.0569C28.6609 26.269 28.2792 26.5636 27.9656 26.9236C27.652 27.2837 27.4126 27.7022 27.2612 28.155C27.1098 28.6079 27.0493 29.0862 27.0833 29.5625C27.073 29.6594 27.073 29.7572 27.0833 29.8541V39.5833H20.8333V20.8333H26.875V23.5416C27.4844 22.6145 28.3217 21.8595 29.3066 21.3488C30.2916 20.8381 31.3911 20.5888 32.5 20.625C35.7292 20.625 39.5 22.4166 39.5 28.25L39.5833 39.5833Z" fill="white"/>
</svg>
